STARTFONT 2.1
FONT -DEC-David-Medium-O-Normal--10-100-75-75-P-52-ISO8859-8
SIZE 10 75 75
FONTBOUNDINGBOX 11 11 0 -3

STARTPROPERTIES 26
FONTNAME_REGISTRY ""
FAMILY_NAME "David"
FOUNDRY "DEC"
WEIGHT_NAME "Medium"
SETWIDTH_NAME "Normal"
SLANT "O"
ADD_STYLE_NAME ""
PIXEL_SIZE 10
RESOLUTION_X 75
RESOLUTION_Y 75
SPACING "P"
AVERAGE_WIDTH 52
CHARSET_REGISTRY "ISO8859"
CHARSET_ENCODING "8"
CHARSET_COLLECTIONS "ASCII ISO8859-8 "
FULL_NAME "David Oblique"
COPYRIGHT "Digital Israel"
CAP_HEIGHT 7
X_HEIGHT 5
_DEC_DEVICE_FONTNAMES "PS=David-Oblique-ISOLatinHebrew"
QUAD_WIDTH 5
POINT_SIZE 100
WEIGHT 10
DEFAULT_CHAR 0
FONT_DESCENT 3
FONT_ASCENT 9
ENDPROPERTIES

CHARS 152

STARTCHAR space
ENCODING 32
SWIDTH 192 0
DWIDTH 2 0
BBX 1 1 0 0
BITMAP
00
ENDCHAR

STARTCHAR exclam
ENCODING 33
SWIDTH 288 0
DWIDTH 3 0
BBX 3 7 0 0
BITMAP
20
20
40
40
80
00
80
ENDCHAR

STARTCHAR quotedbl
ENCODING 34
SWIDTH 384 0
DWIDTH 4 0
BBX 3 3 1 5
BITMAP
A0
A0
A0
ENDCHAR

STARTCHAR numbersign
ENCODING 35
SWIDTH 480 0
DWIDTH 5 0
BBX 7 7 0 0
BITMAP
14
14
7E
28
FC
50
50
ENDCHAR

STARTCHAR dollar
ENCODING 36
SWIDTH 480 0
DWIDTH 5 0
BBX 5 9 0 -1
BITMAP
10
38
48
60
30
10
90
E0
40
ENDCHAR

STARTCHAR percent
ENCODING 37
SWIDTH 864 0
DWIDTH 9 0
BBX 7 7 1 0
BITMAP
64
B8
A8
54
2A
4A
44
ENDCHAR

STARTCHAR ampersand
ENCODING 38
SWIDTH 768 0
DWIDTH 8 0
BBX 7 7 0 0
BITMAP
18
28
30
66
94
98
EC
ENDCHAR

STARTCHAR quoteright
ENCODING 39
SWIDTH 288 0
DWIDTH 3 0
BBX 2 3 1 5
BITMAP
40
40
80
ENDCHAR

STARTCHAR parenleft
ENCODING 40
SWIDTH 288 0
DWIDTH 3 0
BBX 4 9 0 -2
BITMAP
30
40
40
80
80
80
80
80
40
ENDCHAR

STARTCHAR parenright
ENCODING 41
SWIDTH 384 0
DWIDTH 4 0
BBX 4 9 0 -2
BITMAP
20
10
10
10
10
10
20
20
C0
ENDCHAR

STARTCHAR asterisk
ENCODING 42
SWIDTH 480 0
DWIDTH 5 0
BBX 3 3 2 4
BITMAP
A0
40
A0
ENDCHAR

STARTCHAR plus
ENCODING 43
SWIDTH 672 0
DWIDTH 7 0
BBX 5 5 0 0
BITMAP
20
20
F8
20
20
ENDCHAR

STARTCHAR comma
ENCODING 44
SWIDTH 288 0
DWIDTH 3 0
BBX 2 3 0 -2
BITMAP
40
40
80
ENDCHAR

STARTCHAR minus
ENCODING 45
SWIDTH 672 0
DWIDTH 7 0
BBX 4 1 1 2
BITMAP
F0
ENDCHAR

STARTCHAR period
ENCODING 46
SWIDTH 288 0
DWIDTH 3 0
BBX 1 1 0 0
BITMAP
80
ENDCHAR

STARTCHAR slash
ENCODING 47
SWIDTH 384 0
DWIDTH 4 0
BBX 4 7 0 0
BITMAP
10
10
20
40
40
80
80
ENDCHAR

STARTCHAR zero
ENCODING 48
SWIDTH 480 0
DWIDTH 5 0
BBX 5 7 0 0
BITMAP
30
48
48
88
90
90
60
ENDCHAR

STARTCHAR one
ENCODING 49
SWIDTH 480 0
DWIDTH 5 0
BBX 4 7 0 0
BITMAP
30
10
20
20
40
40
E0
ENDCHAR

STARTCHAR two
ENCODING 50
SWIDTH 480 0
DWIDTH 5 0
BBX 5 7 0 0
BITMAP
30
48
08
10
20
48
F0
ENDCHAR

STARTCHAR three
ENCODING 51
SWIDTH 480 0
DWIDTH 5 0
BBX 6 7 0 0
BITMAP
18
24
08
30
08
88
70
ENDCHAR

STARTCHAR four
ENCODING 52
SWIDTH 480 0
DWIDTH 5 0
BBX 5 7 0 0
BITMAP
18
28
50
90
F8
20
20
ENDCHAR

STARTCHAR five
ENCODING 53
SWIDTH 480 0
DWIDTH 5 0
BBX 6 7 0 0
BITMAP
1C
10
20
10
08
88
70
ENDCHAR

STARTCHAR six
ENCODING 54
SWIDTH 480 0
DWIDTH 5 0
BBX 5 7 0 0
BITMAP
18
20
40
A0
90
90
60
ENDCHAR

STARTCHAR seven
ENCODING 55
SWIDTH 480 0
DWIDTH 5 0
BBX 4 7 1 0
BITMAP
F0
90
20
40
40
80
80
ENDCHAR

STARTCHAR eight
ENCODING 56
SWIDTH 480 0
DWIDTH 5 0
BBX 5 7 0 0
BITMAP
30
48
30
60
90
90
60
ENDCHAR

STARTCHAR nine
ENCODING 57
SWIDTH 480 0
DWIDTH 5 0
BBX 5 7 0 0
BITMAP
30
48
48
28
10
20
C0
ENDCHAR

STARTCHAR colon
ENCODING 58
SWIDTH 288 0
DWIDTH 3 0
BBX 2 5 0 0
BITMAP
40
00
00
00
80
ENDCHAR

STARTCHAR semicolon
ENCODING 59
SWIDTH 288 0
DWIDTH 3 0
BBX 3 7 0 -2
BITMAP
20
00
00
00
40
40
80
ENDCHAR

STARTCHAR less
ENCODING 60
SWIDTH 480 0
DWIDTH 5 0
BBX 3 5 1 0
BITMAP
20
40
80
40
20
ENDCHAR

STARTCHAR equal
ENCODING 61
SWIDTH 672 0
DWIDTH 7 0
BBX 5 3 0 1
BITMAP
F8
00
F8
ENDCHAR

STARTCHAR greater
ENCODING 62
SWIDTH 480 0
DWIDTH 5 0
BBX 3 5 1 0
BITMAP
80
40
20
40
80
ENDCHAR

STARTCHAR question
ENCODING 63
SWIDTH 480 0
DWIDTH 5 0
BBX 4 7 1 0
BITMAP
60
90
20
40
80
00
80
ENDCHAR

STARTCHAR at
ENCODING 64
SWIDTH 960 0
DWIDTH 10 0
BBX 9 9 0 -2
BITMAP
1E00
2100
4A80
9480
A480
AD00
9200
4000
3C00
ENDCHAR

STARTCHAR A
ENCODING 65
SWIDTH 672 0
DWIDTH 7 0
BBX 7 7 0 0
BITMAP
04
0C
14
24
3C
44
EE
ENDCHAR

STARTCHAR B
ENCODING 66
SWIDTH 576 0
DWIDTH 6 0
BBX 7 7 0 0
BITMAP
3C
12
22
3C
44
44
F8
ENDCHAR

STARTCHAR C
ENCODING 67
SWIDTH 672 0
DWIDTH 7 0
BBX 7 7 0 0
BITMAP
1E
22
40
40
80
88
70
ENDCHAR

STARTCHAR D
ENCODING 68
SWIDTH 672 0
DWIDTH 7 0
BBX 8 7 0 0
BITMAP
3E
11
21
22
42
44
F8
ENDCHAR

STARTCHAR E
ENCODING 69
SWIDTH 576 0
DWIDTH 6 0
BBX 7 7 0 0
BITMAP
3E
12
20
38
40
44
F8
ENDCHAR

STARTCHAR F
ENCODING 70
SWIDTH 576 0
DWIDTH 6 0
BBX 7 7 0 0
BITMAP
3E
12
20
38
40
40
E0
ENDCHAR

STARTCHAR G
ENCODING 71
SWIDTH 768 0
DWIDTH 8 0
BBX 7 7 0 0
BITMAP
1E
22
40
4E
84
88
78
ENDCHAR

STARTCHAR H
ENCODING 72
SWIDTH 672 0
DWIDTH 7 0
BBX 9 7 0 0
BITMAP
3B80
1100
2200
3E00
4400
4400
EE00
ENDCHAR

STARTCHAR I
ENCODING 73
SWIDTH 288 0
DWIDTH 3 0
BBX 5 7 0 0
BITMAP
38
10
20
20
40
40
E0
ENDCHAR

STARTCHAR J
ENCODING 74
SWIDTH 384 0
DWIDTH 4 0
BBX 6 7 0 0
BITMAP
1C
08
10
10
20
A0
C0
ENDCHAR

STARTCHAR K
ENCODING 75
SWIDTH 672 0
DWIDTH 7 0
BBX 8 7 0 0
BITMAP
3B
12
24
38
48
44
EE
ENDCHAR

STARTCHAR L
ENCODING 76
SWIDTH 576 0
DWIDTH 6 0
BBX 6 7 0 0
BITMAP
38
10
20
20
40
44
FC
ENDCHAR

STARTCHAR M
ENCODING 77
SWIDTH 960 0
DWIDTH 10 0
BBX 11 7 0 0
BITMAP
3060
10C0
2940
2A40
4A80
4C80
E9C0
ENDCHAR

STARTCHAR N
ENCODING 78
SWIDTH 672 0
DWIDTH 7 0
BBX 9 7 0 0
BITMAP
3380
1100
2900
2A00
4A00
4400
E400
ENDCHAR

STARTCHAR O
ENCODING 79
SWIDTH 672 0
DWIDTH 7 0
BBX 7 7 0 0
BITMAP
1C
22
42
44
84
88
70
ENDCHAR

STARTCHAR P
ENCODING 80
SWIDTH 576 0
DWIDTH 6 0
BBX 7 7 0 0
BITMAP
3C
12
22
3C
40
40
E0
ENDCHAR

STARTCHAR Q
ENCODING 81
SWIDTH 672 0
DWIDTH 7 0
BBX 7 9 0 -2
BITMAP
1C
22
42
44
84
88
70
48
F0
ENDCHAR

STARTCHAR R
ENCODING 82
SWIDTH 576 0
DWIDTH 6 0
BBX 7 7 0 0
BITMAP
3C
12
22
3C
48
44
E6
ENDCHAR

STARTCHAR S
ENCODING 83
SWIDTH 480 0
DWIDTH 5 0
BBX 5 7 0 0
BITMAP
38
48
40
20
10
90
E0
ENDCHAR

STARTCHAR T
ENCODING 84
SWIDTH 576 0
DWIDTH 6 0
BBX 7 7 0 0
BITMAP
7E
94
20
20
40
40
E0
ENDCHAR

STARTCHAR U
ENCODING 85
SWIDTH 672 0
DWIDTH 7 0
BBX 8 7 0 0
BITMAP
77
22
44
44
88
88
70
ENDCHAR

STARTCHAR V
ENCODING 86
SWIDTH 576 0
DWIDTH 6 0
BBX 7 7 0 0
BITMAP
EE
44
48
50
50
60
40
ENDCHAR

STARTCHAR W
ENCODING 87
SWIDTH 864 0
DWIDTH 9 0
BBX 10 7 0 0
BITMAP
EDC0
4880
4900
4900
5A00
6C00
4800
ENDCHAR

STARTCHAR X
ENCODING 88
SWIDTH 576 0
DWIDTH 6 0
BBX 8 7 0 0
BITMAP
37
12
14
18
28
48
DC
ENDCHAR

STARTCHAR Y
ENCODING 89
SWIDTH 576 0
DWIDTH 6 0
BBX 7 7 0 0
BITMAP
76
24
28
30
20
40
E0
ENDCHAR

STARTCHAR Z
ENCODING 90
SWIDTH 576 0
DWIDTH 6 0
BBX 7 7 0 0
BITMAP
3E
24
08
10
20
48
F8
ENDCHAR

STARTCHAR bracketleft
ENCODING 91
SWIDTH 384 0
DWIDTH 4 0
BBX 4 9 0 -2
BITMAP
30
20
20
40
40
40
80
80
C0
ENDCHAR

STARTCHAR backslash
ENCODING 92
SWIDTH 480 0
DWIDTH 5 0
BBX 3 7 1 0
BITMAP
80
80
40
40
40
20
20
ENDCHAR

STARTCHAR bracketright
ENCODING 93
SWIDTH 384 0
DWIDTH 4 0
BBX 4 9 0 -2
BITMAP
30
10
10
20
20
20
40
40
C0
ENDCHAR

STARTCHAR asciicircum
ENCODING 94
SWIDTH 480 0
DWIDTH 5 0
BBX 3 3 1 4
BITMAP
40
A0
A0
ENDCHAR

STARTCHAR underscore
ENCODING 95
SWIDTH 480 0
DWIDTH 5 0
BBX 5 1 0 -3
BITMAP
F8
ENDCHAR

STARTCHAR quoteleft
ENCODING 96
SWIDTH 288 0
DWIDTH 3 0
BBX 2 3 2 5
BITMAP
40
80
80
ENDCHAR

STARTCHAR a
ENCODING 97
SWIDTH 480 0
DWIDTH 5 0
BBX 4 5 0 0
BITMAP
30
50
90
A0
D0
ENDCHAR

STARTCHAR b
ENCODING 98
SWIDTH 480 0
DWIDTH 5 0
BBX 4 7 0 0
BITMAP
60
20
60
50
90
A0
C0
ENDCHAR

STARTCHAR c
ENCODING 99
SWIDTH 480 0
DWIDTH 5 0
BBX 4 5 0 0
BITMAP
30
50
80
90
E0
ENDCHAR

STARTCHAR d
ENCODING 100
SWIDTH 480 0
DWIDTH 5 0
BBX 5 7 0 0
BITMAP
18
08
30
50
90
A0
50
ENDCHAR

STARTCHAR e
ENCODING 101
SWIDTH 480 0
DWIDTH 5 0
BBX 4 5 0 0
BITMAP
30
50
E0
90
E0
ENDCHAR

STARTCHAR f
ENCODING 102
SWIDTH 288 0
DWIDTH 3 0
BBX 6 10 0 -3
BITMAP
0C
10
3C
10
10
20
20
20
20
C0
ENDCHAR

STARTCHAR g
ENCODING 103
SWIDTH 384 0
DWIDTH 4 0
BBX 5 8 0 -3
BITMAP
38
50
50
20
60
90
90
60
ENDCHAR

STARTCHAR h
ENCODING 104
SWIDTH 480 0
DWIDTH 5 0
BBX 4 7 0 0
BITMAP
60
20
30
50
50
A0
B0
ENDCHAR

STARTCHAR i
ENCODING 105
SWIDTH 288 0
DWIDTH 3 0
BBX 3 7 0 0
BITMAP
20
00
C0
40
40
80
C0
ENDCHAR

STARTCHAR j
ENCODING 106
SWIDTH 288 0
DWIDTH 3 0
BBX 5 10 0 -3
BITMAP
08
00
30
10
10
20
20
20
A0
C0
ENDCHAR

STARTCHAR k
ENCODING 107
SWIDTH 480 0
DWIDTH 5 0
BBX 5 7 0 0
BITMAP
60
20
48
50
E0
A0
98
ENDCHAR

STARTCHAR l
ENCODING 108
SWIDTH 288 0
DWIDTH 3 0
BBX 3 7 0 0
BITMAP
60
20
40
40
80
80
C0
ENDCHAR

STARTCHAR m
ENCODING 109
SWIDTH 672 0
DWIDTH 7 0
BBX 6 5 0 0
BITMAP
AC
54
54
A8
AC
ENDCHAR

STARTCHAR n
ENCODING 110
SWIDTH 480 0
DWIDTH 5 0
BBX 4 5 0 0
BITMAP
B0
50
50
A0
B0
ENDCHAR

STARTCHAR o
ENCODING 111
SWIDTH 480 0
DWIDTH 5 0
BBX 4 5 0 0
BITMAP
70
50
90
A0
E0
ENDCHAR

STARTCHAR p
ENCODING 112
SWIDTH 480 0
DWIDTH 5 0
BBX 6 8 0 -3
BITMAP
38
14
24
28
30
40
40
E0
ENDCHAR

STARTCHAR q
ENCODING 113
SWIDTH 480 0
DWIDTH 5 0
BBX 5 8 0 -3
BITMAP
38
50
90
A0
60
20
40
E0
ENDCHAR

STARTCHAR r
ENCODING 114
SWIDTH 384 0
DWIDTH 4 0
BBX 4 5 0 0
BITMAP
50
60
40
80
80
ENDCHAR

STARTCHAR s
ENCODING 115
SWIDTH 384 0
DWIDTH 4 0
BBX 3 5 0 0
BITMAP
60
80
40
20
C0
ENDCHAR

STARTCHAR t
ENCODING 116
SWIDTH 288 0
DWIDTH 3 0
BBX 4 6 0 0
BITMAP
20
F0
40
80
80
C0
ENDCHAR

STARTCHAR u
ENCODING 117
SWIDTH 480 0
DWIDTH 5 0
BBX 4 5 0 0
BITMAP
D0
50
A0
A0
D0
ENDCHAR

STARTCHAR v
ENCODING 118
SWIDTH 480 0
DWIDTH 5 0
BBX 4 5 0 0
BITMAP
D0
50
50
60
40
ENDCHAR

STARTCHAR w
ENCODING 119
SWIDTH 672 0
DWIDTH 7 0
BBX 6 5 0 0
BITMAP
D4
54
54
78
50
ENDCHAR

STARTCHAR x
ENCODING 120
SWIDTH 384 0
DWIDTH 4 0
BBX 5 5 0 0
BITMAP
48
30
20
50
90
ENDCHAR

STARTCHAR y
ENCODING 121
SWIDTH 480 0
DWIDTH 5 0
BBX 5 8 0 -3
BITMAP
68
28
28
30
10
20
20
C0
ENDCHAR

STARTCHAR z
ENCODING 122
SWIDTH 384 0
DWIDTH 4 0
BBX 4 5 0 0
BITMAP
70
10
20
40
E0
ENDCHAR

STARTCHAR braceleft
ENCODING 123
SWIDTH 384 0
DWIDTH 4 0
BBX 5 9 0 -2
BITMAP
18
20
20
40
80
40
40
40
60
ENDCHAR

STARTCHAR bar
ENCODING 124
SWIDTH 288 0
DWIDTH 3 0
BBX 3 9 0 -2
BITMAP
20
20
20
40
40
40
80
80
80
ENDCHAR

STARTCHAR braceright
ENCODING 125
SWIDTH 384 0
DWIDTH 4 0
BBX 5 9 0 -2
BITMAP
30
10
10
10
08
10
20
20
C0
ENDCHAR

STARTCHAR asciitilde
ENCODING 126
SWIDTH 576 0
DWIDTH 6 0
BBX 6 2 0 2
BITMAP
64
98
ENDCHAR

STARTCHAR cent
ENCODING 162
SWIDTH 480 0
DWIDTH 5 0
BBX 5 7 0 -1
BITMAP
10
70
A8
A0
C0
70
80
ENDCHAR

STARTCHAR sterling
ENCODING 163
SWIDTH 480 0
DWIDTH 5 0
BBX 5 7 0 0
BITMAP
18
28
20
70
20
C8
B0
ENDCHAR

STARTCHAR currency
ENCODING 164
SWIDTH 480 0
DWIDTH 5 0
BBX 6 6 0 1
BITMAP
84
78
48
48
78
84
ENDCHAR

STARTCHAR yen
ENCODING 165
SWIDTH 672 0
DWIDTH 7 0
BBX 7 7 0 0
BITMAP
76
24
EE
30
F8
20
70
ENDCHAR

STARTCHAR brokenbar
ENCODING 166
SWIDTH 288 0
DWIDTH 3 0
BBX 3 9 0 -2
BITMAP
20
20
40
40
00
40
40
80
80
ENDCHAR

STARTCHAR section
ENCODING 167
SWIDTH 480 0
DWIDTH 5 0
BBX 6 9 0 -2
BITMAP
18
24
30
58
48
68
30
90
60
ENDCHAR

STARTCHAR dieresis
ENCODING 168
SWIDTH 288 0
DWIDTH 3 0
BBX 3 1 1 6
BITMAP
A0
ENDCHAR

STARTCHAR copyright
ENCODING 169
SWIDTH 864 0
DWIDTH 9 0
BBX 7 7 1 0
BITMAP
38
44
9A
A2
9A
44
38
ENDCHAR

STARTCHAR multiply
ENCODING 170
SWIDTH 672 0
DWIDTH 7 0
BBX 5 5 0 0
BITMAP
88
50
20
50
88
ENDCHAR

STARTCHAR guillemotleft
ENCODING 171
SWIDTH 480 0
DWIDTH 5 0
BBX 5 5 0 0
BITMAP
28
50
A0
A0
50
ENDCHAR

STARTCHAR logicalnot
ENCODING 172
SWIDTH 672 0
DWIDTH 7 0
BBX 5 3 0 1
BITMAP
F8
08
08
ENDCHAR

STARTCHAR hyphen
ENCODING 173
SWIDTH 384 0
DWIDTH 4 0
BBX 3 1 0 2
BITMAP
E0
ENDCHAR

STARTCHAR registered
ENCODING 174
SWIDTH 864 0
DWIDTH 9 0
BBX 7 7 1 0
BITMAP
38
44
BA
B2
AA
44
38
ENDCHAR

STARTCHAR macron
ENCODING 175
SWIDTH 288 0
DWIDTH 3 0
BBX 3 1 1 6
BITMAP
E0
ENDCHAR

STARTCHAR degree
ENCODING 176
SWIDTH 384 0
DWIDTH 4 0
BBX 4 4 0 3
BITMAP
60
90
90
60
ENDCHAR

STARTCHAR plusminus
ENCODING 177
SWIDTH 672 0
DWIDTH 7 0
BBX 5 7 0 0
BITMAP
20
20
F8
20
20
00
F8
ENDCHAR

STARTCHAR twosuperior
ENCODING 178
SWIDTH 288 0
DWIDTH 3 0
BBX 3 4 0 3
BITMAP
60
A0
40
E0
ENDCHAR

STARTCHAR threesuperior
ENCODING 179
SWIDTH 288 0
DWIDTH 3 0
BBX 3 4 0 3
BITMAP
E0
40
20
C0
ENDCHAR

STARTCHAR acute
ENCODING 180
SWIDTH 288 0
DWIDTH 3 0
BBX 2 2 2 6
BITMAP
40
80
ENDCHAR

STARTCHAR mu
ENCODING 181
SWIDTH 480 0
DWIDTH 5 0
BBX 5 8 0 -3
BITMAP
68
28
50
50
68
80
80
C0
ENDCHAR

STARTCHAR paragraph
ENCODING 182
SWIDTH 576 0
DWIDTH 6 0
BBX 7 10 0 -3
BITMAP
3E
74
F4
E8
E8
50
50
A0
A0
A0
ENDCHAR

STARTCHAR periodcentered
ENCODING 183
SWIDTH 288 0
DWIDTH 3 0
BBX 1 1 0 2
BITMAP
80
ENDCHAR

STARTCHAR cedilla
ENCODING 184
SWIDTH 288 0
DWIDTH 3 0
BBX 2 2 0 -2
BITMAP
40
C0
ENDCHAR

STARTCHAR onesuperior
ENCODING 185
SWIDTH 288 0
DWIDTH 3 0
BBX 3 4 0 3
BITMAP
C0
40
40
E0
ENDCHAR

STARTCHAR divide
ENCODING 186
SWIDTH 672 0
DWIDTH 7 0
BBX 5 5 0 0
BITMAP
20
00
F8
00
20
ENDCHAR

STARTCHAR guillemotright
ENCODING 187
SWIDTH 480 0
DWIDTH 5 0
BBX 5 5 0 0
BITMAP
50
28
28
50
A0
ENDCHAR

STARTCHAR onequarter
ENCODING 188
SWIDTH 672 0
DWIDTH 7 0
BBX 7 7 0 0
BITMAP
C4
48
48
F4
2C
5E
88
ENDCHAR

STARTCHAR onehalf
ENCODING 189
SWIDTH 672 0
DWIDTH 7 0
BBX 7 7 0 0
BITMAP
C4
48
48
F6
2A
44
8E
ENDCHAR

STARTCHAR threequarters
ENCODING 190
SWIDTH 672 0
DWIDTH 7 0
BBX 7 7 0 0
BITMAP
E4
48
28
D4
2C
5E
88
ENDCHAR

STARTCHAR dblunderscore
ENCODING 223
SWIDTH 480 0
DWIDTH 5 0
BBX 5 6 0 -3
BITMAP
00
00
00
F8
00
F8
ENDCHAR

STARTCHAR aleph
ENCODING 224
SWIDTH 672 0
DWIDTH 7 0
BBX 7 7 0 0
BITMAP
00
24
12
34
58
88
C8
ENDCHAR

STARTCHAR beth
ENCODING 225
SWIDTH 576 0
DWIDTH 6 0
BBX 6 7 0 0
BITMAP
00
38
04
08
08
10
F8
ENDCHAR

STARTCHAR gimmel
ENCODING 226
SWIDTH 576 0
DWIDTH 6 0
BBX 5 7 0 0
BITMAP
00
10
08
08
10
30
D0
ENDCHAR

STARTCHAR daleth
ENCODING 227
SWIDTH 576 0
DWIDTH 6 0
BBX 6 7 0 0
BITMAP
00
7C
08
10
10
20
20
ENDCHAR

STARTCHAR he
ENCODING 228
SWIDTH 576 0
DWIDTH 6 0
BBX 6 7 0 0
BITMAP
00
7C
04
48
48
90
90
ENDCHAR

STARTCHAR waw
ENCODING 229
SWIDTH 288 0
DWIDTH 3 0
BBX 3 7 0 0
BITMAP
00
60
20
40
40
80
80
ENDCHAR

STARTCHAR zayin
ENCODING 230
SWIDTH 384 0
DWIDTH 4 0
BBX 3 7 1 -1
BITMAP
C0
60
80
80
80
80
00
ENDCHAR

STARTCHAR het
ENCODING 231
SWIDTH 672 0
DWIDTH 7 0
BBX 7 7 0 0
BITMAP
00
7C
22
44
44
88
88
ENDCHAR

STARTCHAR teth
ENCODING 232
SWIDTH 672 0
DWIDTH 7 0
BBX 7 7 0 0
BITMAP
00
4C
52
42
44
4C
70
ENDCHAR

STARTCHAR yod
ENCODING 233
SWIDTH 288 0
DWIDTH 3 0
BBX 3 6 0 0
BITMAP
40
20
20
40
00
00
ENDCHAR

STARTCHAR kaphfinal
ENCODING 234
SWIDTH 480 0
DWIDTH 5 0
BBX 5 9 0 -2
BITMAP
00
F8
10
10
20
20
20
40
40
ENDCHAR

STARTCHAR kaph
ENCODING 235
SWIDTH 576 0
DWIDTH 6 0
BBX 6 7 0 0
BITMAP
00
38
04
04
08
18
E0
ENDCHAR

STARTCHAR lamed
ENCODING 236
SWIDTH 480 0
DWIDTH 5 0
BBX 5 8 0 0
BITMAP
40
40
70
08
08
10
20
40
ENDCHAR

STARTCHAR memfinal
ENCODING 237
SWIDTH 672 0
DWIDTH 7 0
BBX 7 7 0 0
BITMAP
00
7E
22
44
44
88
F8
ENDCHAR

STARTCHAR mem
ENCODING 238
SWIDTH 672 0
DWIDTH 7 0
BBX 7 7 0 -1
BITMAP
4C
32
22
22
44
58
00
ENDCHAR

STARTCHAR nunfinal
ENCODING 239
SWIDTH 288 0
DWIDTH 3 0
BBX 3 9 0 -2
BITMAP
00
60
20
20
40
40
40
80
80
ENDCHAR

STARTCHAR nun
ENCODING 240
SWIDTH 576 0
DWIDTH 6 0
BBX 6 7 0 0
BITMAP
00
18
04
08
08
10
F0
ENDCHAR

STARTCHAR samekh
ENCODING 241
SWIDTH 672 0
DWIDTH 7 0
BBX 7 7 0 0
BITMAP
00
7E
22
22
44
48
70
ENDCHAR

STARTCHAR ayin
ENCODING 242
SWIDTH 480 0
DWIDTH 5 0
BBX 5 8 0 -1
BITMAP
00
48
48
28
28
10
30
C0
ENDCHAR

STARTCHAR pefinal
ENCODING 243
SWIDTH 576 0
DWIDTH 6 0
BBX 5 9 1 -2
BITMAP
00
70
88
88
50
10
10
20
20
ENDCHAR

STARTCHAR pe
ENCODING 244
SWIDTH 576 0
DWIDTH 6 0
BBX 6 7 0 -1
BITMAP
38
44
44
28
08
F0
00
ENDCHAR

STARTCHAR zadikfinal
ENCODING 245
SWIDTH 480 0
DWIDTH 5 0
BBX 5 9 0 -3
BITMAP
48
48
48
70
40
80
80
80
00
ENDCHAR

STARTCHAR zadik
ENCODING 246
SWIDTH 576 0
DWIDTH 6 0
BBX 6 7 0 0
BITMAP
00
48
24
28
10
10
F0
ENDCHAR

STARTCHAR kof
ENCODING 247
SWIDTH 672 0
DWIDTH 7 0
BBX 7 9 0 -2
BITMAP
00
3E
02
24
24
48
50
80
80
ENDCHAR

STARTCHAR resh
ENCODING 248
SWIDTH 480 0
DWIDTH 5 0
BBX 5 7 0 0
BITMAP
00
78
08
10
10
20
20
ENDCHAR

STARTCHAR shin
ENCODING 249
SWIDTH 672 0
DWIDTH 7 0
BBX 7 7 0 0
BITMAP
00
92
92
A4
C4
88
F0
ENDCHAR

STARTCHAR taf
ENCODING 250
SWIDTH 768 0
DWIDTH 8 0
BBX 8 7 0 0
BITMAP
00
3E
11
12
22
24
C4
ENDCHAR
ENDFONT
